# xmcd
#
# Track frame offsets: 
#        150
#        13160
#        27650
#        39817
#        55236
#        67156
#        80036
#        95715
#        111118
#        125526
#        138059
#        149821
#        162256
#        174554
#        187614
#        200920
#        214844
#        229344
#        244893
#        259958
#        273296
#        288309
#        303124
#        315504
#        329592
#
# Disc length: 4573 seconds
#
# Revision: 0
# Processed by: cddbd v1.5.2PL0 Copyright (c) Steve Scherf et al.
# Submitted via: ExactAudioCopy v0.99pb3
#
DISCID=7e11db19
DTITLE=Various Artist - When The Levee Breaks - Mississippi Blues: Rare Cuts 
DTITLE=1926-1941 [Disc 2] 
DYEAR=1900
DGENRE=Blues
TTITLE0=Son House/Mississippi County Farm Blues
TTITLE1=Joe McCoy/When The Levee Breaks
TTITLE2=Blind Joe Reynolds/Ninety Nine Blues
TTITLE3=Jelly Jaw Short/Snake Doctor Blues
TTITLE4=Otto Virgial/Little Girl In Rome
TTITLE5=Mississippi Moaner/It's Cold In China Blues
TTITLE6=Willie '61' Blackwell/Bald Eagle Blues
TTITLE7=Bogus Ben Covington/Boodle-De-Bum Blues
TTITLE8=William Harris/Bull Frog Blues
TTITLE9=Mississippi Jook Band/Dangerous Woman
TTITLE10=Buddy Boy Hawkins/Shaggy Dog Blues
TTITLE11=Sam Collins/Devil In The Lion's Den
TTITLE12=Arthur Petties/Quarrellin' Mama Blues
TTITLE13=Sam Butler/Devil And My Brown Blues
TTITLE14=Robert Lockwood/Take A Little Walk With Me
TTITLE15=Charlie McCoy/Last Time Blues
TTITLE16=Garfield Akers/Dough Roller Blues
TTITLE17=Walter Rhodes/The Crowing Rooster
TTITLE18=Geeshie Wiley/Motherless Child Blues
TTITLE19=George Torey/Married Woman Blues
TTITLE20=Willie '61' Blackwell/She's Young And Wild
TTITLE21=Mississippi Bracey/Cherry Ball
TTITLE22=Otto Virgial/Bad Notion Blues
TTITLE23=Freddy Spruell/Don't Cry Baby
TTITLE24=Kid Bailey/Rowdy Blues
EXTD=
EXTT0=
EXTT1=
EXTT2=
EXTT3=
EXTT4=
EXTT5=
EXTT6=
EXTT7=
EXTT8=
EXTT9=
EXTT10=
EXTT11=
EXTT12=
EXTT13=
EXTT14=
EXTT15=
EXTT16=
EXTT17=
EXTT18=
EXTT19=
EXTT20=
EXTT21=
EXTT22=
EXTT23=
EXTT24=
PLAYORDER=
